<svg version="1.1" xmlns="http://www.w3.org/2000/svg" xmlns:xlink="http://www.w3.org/1999/xlink" x="0px" y="0px" viewBox="0 0 300 64" enable-background="new 0 0 300 64" xml:space="preserve">
      <title>Georgetown University</title>
      <path fill-rule="evenodd" clip-rule="evenodd" fill="#FFFFFF" d="M19.5,30.7c-0.3,1.3-1.1,3.6-1.6,4.7
       c-1,2.1-3.8,4.7-6.8,4.7c-3.6,0-5-1.8-5-3.7C6.1,35,6.8,34,8.2,34s1.7,1.2,1.7,1.6c0,0.5-0.2,1.1-0.4,1.3s-0.2,0.4-0.2,0.7
       c0,0.8,0.9,1.2,1.7,1.2c2,0,3.1-1.6,3.8-4.3c0.5-1.8,1.2-4.9,2.6-10.3l-0.2-0.1c-0.5,0.7-2.8,3.9-8.1,3.9C3.7,28,0,24.2,0,17.4
       c0-5,2.3-9.3,5.2-12.3c2.2-2.2,5.6-4.6,11-4.6c4.1,0,6.1,1.3,6.9,2c0.7,0.4,1,0.5,1.2,0.5c0.5,0,0.7-0.4,0.9-1.3
       c0-0.2,0.2-0.2,0.4-0.2l0.6,0.2c0.2,0,0.3,0.1,0.2,0.3l-2.2,7.9c-0.1,0.2-0.2,0.3-0.4,0.2L23.2,10c-0.2,0-0.3-0.2-0.3-0.4
       c0.7-3.4-1.3-7.5-6.3-7.5c-2.5,0-5.3,0.9-8.1,4.5c-2.3,2.9-3.6,7.1-3.6,11.8c0,6.4,4,7.4,5.7,7.4c4.7,0,7-4,7.1-6.3
       c0.1-1.5-0.3-1.8-1.4-1.8h-1.4c-0.3,0-0.4-0.1-0.3-0.4l0.2-0.9c0-0.2,0.1-0.3,0.4-0.3c0.6,0,2,0.1,5.4,0.1c2.7,0,3.6-0.1,4.1-0.1
       c0.3,0,0.4,0.1,0.4,0.3v1c0,0.2-0.1,0.3-0.4,0.3h-0.8c-0.7,0-1.3,0.3-1.8,2.4L19.5,30.7z M49.6,20.3c-0.2-0.2-0.4-0.1-0.5,0.1
       c-0.6,0.7-2.7,3.4-3.6,4.1c-1,0.9-2.1,1.5-3.4,1.5h-8.8l3.8-11.9h2c2.8,0,4.3,0.4,4.3,3.2c0,0.2,0,0.3,0.2,0.4h0.7
       c0.2,0,0.2,0,0.3-0.2c0.2-1.5,1.4-6.3,2-7.8c0.1-0.1,0-0.2-0.2-0.2l-0.7-0.2c-0.2,0-0.2,0.1-0.3,0.2c-1.4,3.1-2.9,3.3-4.6,3.3h-3.4
       l3.3-10.1h6.1c0.2,0,0.5,0.1,0.7,0.3l4,4.6c0.2,0.2,0.3,0.3,0.5,0.2l0.5-0.2c0.2-0.2,0.2-0.2,0.2-0.4L51.5,2c-0.1-0.8-0.1-1-0.8-1
       c-0.4,0-1.4,0-2.9,0.1c-1.6,0-3.7,0-6.5,0h-2.8c-0.9,0-2.2,0-3.4-0.1c-1.1,0-2,0-2.3,0s-0.4,0.1-0.5,0.3l-0.2,0.9
       c-0.1,0.2,0,0.4,0.2,0.4h1.3c1.2,0,2.6,0.5,1.9,2.7l-6,18.6c-0.4,1.3-1.2,2.1-2.7,2.1h-1.3c-0.2,0-0.2,0.1-0.3,0.2l-0.2,1
       c0,0.2,0,0.3,0.2,0.3s0.9,0,1.7-0.1c0.9,0,2,0,3.2,0h5.1c2.7,0,5.5,0,7.7,0s3.8,0.1,4.1,0.1c0.5,0,0.7-0.1,0.9-0.7l2-5.7
       c0.1-0.3,0-0.4-0.1-0.4L49.6,20.3z M80,12c0-7.2-4.4-11.4-10.6-11.4c-8.4,0-14.3,7.6-14.3,15.8c0,3.5,1,6.7,3.4,9s5.5,2.6,7,2.6
       C74.4,28,80,19.8,80,12z M64.6,5.3c1.4-1.6,3.3-2.9,5.6-2.9c3.5,0,5.5,2.6,5.5,6.5c-0.1,8.5-5.2,17.2-10.9,17.2
       c-3.2,0-5.8-2.3-5.8-7.1C59.1,14.7,61.4,8.9,64.6,5.3z M90.5,14.7c1.1,0,2.8-0.2,3.7,1.9c0.5,0.9,3.9,8.6,4.5,9.5
       c0.5,0.9,0.7,1.3,1.1,1.3c0.6,0,1.3-0.1,3.6-0.1c2.1,0,2.7,0.1,3.1,0.1c0.2,0,0.3-0.2,0.4-0.4l0.1-0.8c0.1-0.2,0-0.4-0.2-0.4h-1
       c-1.4,0-2.3-0.6-3.4-2.3c-0.7-1.1-3.3-6.6-3.6-7c-0.4-0.8-1-2-2.3-2.3V14c5.1-0.5,9.2-3.7,9.2-7.5c0-5.4-5.9-5.7-9.2-5.7
       c-1.1,0-5.2,0.1-9.2,0.1c-0.4,0-0.5,0.1-0.5,0.3L86.6,2c-0.1,0.2,0,0.3,0.3,0.3h1.3c1.3,0,1.6,0.7,1.2,2l-6.3,19.8
       c-0.3,1-1,1.8-2,1.8h-1c-0.3,0-0.4,0.1-0.4,0.3l-0.2,0.9c-0.1,0.2,0,0.4,0.2,0.4c0.5,0,2-0.1,4.7-0.1c3.4,0,5.1,0.1,5.6,0.1
       c0.2,0,0.4-0.1,0.5-0.3l0.1-0.9c0.1-0.2,0-0.3-0.2-0.3h-1.6c-1.1,0-1.5-0.7-0.9-2.8L90.5,14.7z M94.3,2.5c0.5-0.1,0.9-0.1,1.6-0.1
       c3.8,0,5,2.5,5,4.2c0,2.8-1.8,5-3.8,5.9c-2.7,1.1-4.7,0.9-6.3,0.9L94.3,2.5z M125,23.9c-0.2,0.6-0.4,1.2-0.8,1.4
       c-0.5,0.4-1.9,0.9-3.8,0.9c-3,0-6.6-2.5-6.6-8.5c0-8.3,5.2-15.6,11.2-15.6c5,0,6.7,4.1,6.2,7.5c-0.1,0.3,0,0.5,0.2,0.5h0.8
       c0.2,0.1,0.3,0,0.4-0.2l2.3-7.8c0-0.2-0.1-0.3-0.2-0.3l-0.6-0.2c-0.2-0.1-0.4,0-0.4,0.2c-0.4,0.8-0.6,1.2-1.1,1.2
       c-0.2,0-0.5-0.1-0.9-0.5c-0.8-0.6-3-2-6.3-2c-8.8,0-16.4,7.3-16.4,16.8c0,5.7,4.4,10.6,11.7,10.6c3.4,0,6.7-1.3,7.8-1.8
       c0.5-0.2,0.7-0.4,0.8-0.9l1.3-6c0.2-1,0.9-1.3,1.9-1.3h0.6c0.2,0,0.4-0.1,0.4-0.3l0.1-0.8c0-0.3-0.1-0.5-0.3-0.5
       c-0.5,0-1.5,0.1-4.6,0.1c-3.2,0-4.5-0.1-5.2-0.1c-0.2,0-0.4,0.1-0.4,0.3l-0.2,0.8c0,0.2,0,0.4,0.4,0.4h1.3c1.1,0,1.7,0.3,1.4,1.9
       L125,23.9z M157.7,20.3c-0.2-0.2-0.4-0.1-0.5,0.1c-0.6,0.7-2.7,3.4-3.6,4.1c-1,0.9-2.1,1.5-3.4,1.5h-8.8l3.8-11.9h2
       c2.8,0,4.3,0.4,4.3,3.2c0,0.2,0,0.3,0.2,0.4h0.7c0.2,0,0.2,0,0.3-0.2c0.2-1.5,1.4-6.3,2-7.8c0.1-0.1,0-0.2-0.2-0.2l-0.7-0.2
       c-0.2,0-0.2,0.1-0.3,0.2c-1.4,3.1-2.9,3.3-4.6,3.3h-3.4l3.3-10.1h6.1c0.2,0,0.5,0.1,0.7,0.3l4,4.6c0.2,0.2,0.3,0.3,0.5,0.2l0.5-0.2
       c0.2-0.2,0.2-0.2,0.2-0.4L159.6,2c-0.2-0.6-0.2-0.8-0.9-0.8c-0.4,0-1.4,0-2.9,0.1c-1.6,0-3.7,0-6.5,0h-2.8c-0.9,0-2.2,0-3.4-0.1
       c-1.1,0-2,0-2.3,0s-0.4,0.1-0.5,0.3l-0.2,0.9c-0.1,0.2,0,0.4,0.2,0.4h1.3c1.2,0,2.6,0.5,1.9,2.7l-6,18.6c-0.4,1.3-1.2,2.1-2.7,2.1
       h-1.3c-0.2,0-0.2,0.1-0.3,0.2l-0.2,1c0,0.2,0,0.3,0.2,0.3s0.9,0,1.7-0.1c0.9,0,2,0,3.2,0h5.1c2.7,0,5.5,0,7.7,0s3.8,0.1,4.1,0.1
       c0.5,0,0.7-0.1,0.9-0.7l2-5.7c0.1-0.3,0-0.4-0.1-0.4L157.7,20.3z M173.2,1.2c-4.1,0-6-0.3-6.7-0.5c-0.3-0.2-0.5-0.3-0.6-0.3
       c-0.2,0-0.3,0.2-0.4,0.4c-0.1,0.2-2.5,5.7-3,6.6c-0.1,0.2-0.1,0.3,0.1,0.4l0.6,0.4c0.2,0,0.3,0,0.5-0.2c0.9-1.1,3-3.4,4.3-4.4
       c0.9-0.7,2.6-0.9,6.2-0.9h1l-6,19.3c-0.9,2.9-1.6,4-3.8,4h-1c-0.3,0-0.4,0.1-0.5,0.3l-0.1,0.9c0,0.2,0.1,0.4,0.4,0.4
       c0.4,0,2.5-0.1,6.3-0.1c3.7,0,5.2,0.1,5.8,0.1c0.3,0,0.4-0.1,0.5-0.4l0.2-0.8c0-0.2,0-0.4-0.2-0.4h-1.7c-2,0-2.4-0.9-1.6-3.3l6.2-20
       h0.8c1.8,0,4.6,0.4,5.5,1c0.5,1,1.3,3.4,1.6,4.7c0.2,0.5,0.3,0.6,0.5,0.6l0.6-0.1c0.2,0,0.3-0.1,0.3-0.4c-0.1-1.6,0.3-7.3,0.4-7.9
       c0-0.2-0.2-0.3-0.3-0.3c-0.2,0-0.2,0.1-0.4,0.2c-0.7,0.4-2.1,0.7-5.6,0.7C183.1,1.2,173.2,1.2,173.2,1.2z M214.3,12
       c0-7.2-4.4-11.4-10.6-11.4c-8.3,0-14.2,7.7-14.2,15.8c0,3.5,1,6.7,3.4,9s5.5,2.6,7,2.6C208.8,28,214.3,19.8,214.3,12z M199,5.3
       c1.4-1.6,3.3-2.9,5.6-2.9c3.5,0,5.5,2.6,5.5,6.5c-0.1,8.5-5.2,17.2-10.9,17.2c-3.2,0-5.8-2.3-5.8-7.1C193.4,14.7,195.8,8.9,199,5.3z
       M225.2,4.7c0.3-1.6,0.8-2.1,2.1-2.1h0.6c0.3,0,0.4-0.2,0.4-0.3l0.2-0.9c0.1-0.3,0-0.4-0.4-0.4c-0.5,0-2,0.1-4.4,0.1
       c-2.6,0.1-4.2-0.1-4.6-0.1c-0.3,0-0.4,0.1-0.5,0.3l-0.1,0.9c0,0.3,0,0.4,0.4,0.4h0.9c0.9,0,1,0.7,0.9,2l-2.8,21.9
       c-0.2,1.1,0,1.6,0.5,1.6c0.6,0,1-0.5,1.5-1c1.4-1.7,12-16.4,12.4-16.9c0.3-0.4,0.6-0.4,0.5,0.1l-1.1,16.4c-0.1,0.9,0.1,1.4,0.7,1.4
       c0.6,0,1.1-0.6,1.6-1.3c1.7-2.1,6.8-9.6,7.9-11.4c0.9-1.6,6.8-11.3,7.2-11.8c0.6-0.8,1.3-1.1,2-1.1h0.7c0.2,0,0.2-0.1,0.3-0.3l0.2-1
       c0-0.2-0.1-0.3-0.4-0.3c-0.5,0-1.6,0.1-3.9,0.1c-2,0-3-0.1-3.5-0.1c-0.2,0-0.4,0.1-0.4,0.4l-0.2,0.8c-0.1,0.3,0.1,0.4,0.3,0.4h0.6
       c1.2,0,1.3,1,0.9,2c-0.4,1.1-2.1,4.7-4,7.9c-0.8,1.3-4.6,7.7-5.4,8.5c-0.4,0.5-0.6,0.4-0.5-0.3l2-16.3c0.2-1.4,0.5-1.8,1.3-1.8h0.6
       c0.3,0,0.4-0.1,0.5-0.3l0.1-0.9c0-0.2,0-0.3-0.4-0.3c-0.5,0-1.5,0.1-3.8,0.1c-2.4,0-3.4-0.1-3.8-0.1c-0.3,0-0.4,0.1-0.5,0.2
       l-0.2,1.1c0,0.2,0.1,0.3,0.3,0.3h0.5c0.7,0,1,0.5,1,1.3s-0.5,2.4-1.4,3.8c-0.2,0.2-8.8,12.8-9.1,13c-0.4,0.5-0.7,0.3-0.6-0.2
       L225.2,4.7z M244.4,23.5c0,3.2,2.7,4.9,5.5,4.9c5.7,0,9.2-4.4,11.3-8c2-3.4,3.7-8.5,4.6-13.5c0.1-0.6,0.3-0.6,0.4-0.2
       c1.9,7.7,5.5,16.4,9.9,22.2c2.3,3.1,7.4,9.4,15.4,9.4c4.5,0,6.6-2.2,7.2-2.9c0.7-0.7,1.2-1.9,1.2-2.4c0-0.6-0.3-1.3-1.1-1.3
       c-0.8,0-1.3,0.8-1.7,2.5c-0.3,1.3-1.7,2.2-3.7,2.2c-6.8,0-12.5-7.2-14.5-10.6c-0.4-0.7-1.1-1.5-0.4-4.3c2.5-11.2,5.6-15.4,8.3-17.3
       c1.3-0.9,2-1.1,2.8-1.1c0.5,0,1.2,0.4,1.4,0.9c0.3,0.5,0.9,1.1,1.7,1.1c1,0,1.9-0.9,1.9-2c0-1.3-1.1-2.7-3.4-2.7
       c-1.6,0-3.5,0.4-5.5,2c-4.3,3.3-6.9,10.9-8.6,18.6c-0.2,0.7-0.4,1.1-0.6,0.6c-2.1-3.4-5.8-13.4-7.1-19.4c-0.2-0.6-0.4-0.9-1.1-0.9
       c-7,0-11-0.3-13.8,1.7c-1.8,1.3-2.7,3.4-2.7,5.4c0,1.9,1.2,3.4,2.5,3.4c1.2,0,2-0.8,2-1.7s-0.5-1.6-1.8-1.8
       c-0.8-0.2-1.1-1.1-1.1-1.6c0-0.9,1.5-2,3.1-2.5c2.2-0.7,4.5-0.7,6.9-0.7c0.9,0,1.3,0.3,1.3,1.2c0,3.9-3.1,12.4-5.9,16.3
       c-1.7,2.3-4.9,5.3-8.6,5.3c-2.2,0-2.8-0.9-2.6-1.6c0.2-0.9,1.3-1.4,1.3-2.5c0-1.3-0.9-1.9-1.9-1.9C245.7,20.3,244.4,21.4,244.4,23.5
       z M54.1,41.3c0.6-2,1.4-3.1,2.7-3.1h0.6c0.3,0,0.4-0.2,0.4-0.3l0.2-0.8c0.1-0.3,0-0.5-0.4-0.5s-1.3,0.1-3.5,0.1
       c-2.5,0-4-0.1-4.5-0.1c-0.4,0-0.5,0.2-0.5,0.4L49,37.9c0,0.2,0,0.3,0.4,0.3h1.3c1.3,0,1.7,0.9,0.9,3.6l-2.8,10
       c-1.3,4.3-2.6,6.4-4.4,7.9c-1.3,1.1-3.3,1.7-5.1,1.7c-1.2,0-5.3-0.5-5.3-5.2c0-1.7,0.9-4.6,1.2-5.4l3.2-10.5
       c0.6-1.9,1.6-2.1,2.3-2.1h1.1c0.2,0,0.4-0.2,0.4-0.3l0.2-0.8c0-0.3-0.1-0.5-0.4-0.5c-0.4,0-1.7,0.1-4.9,0.1c-3.6,0-4.9-0.1-5.4-0.1
       c-0.4,0-0.5,0.1-0.5,0.3L31,37.8c-0.1,0.2,0.1,0.3,0.2,0.3h1.4c1.1,0,1.6,0.6,1.1,2.4l-3.4,10.8c-0.2,0.9-0.8,3.3-0.8,4.9
       c0,4.8,3.8,7.2,8.8,7.2c7.2,0,10.3-4.6,12.4-11.5L54.1,41.3z M74.3,62.2c0.2,0.5,0.6,0.8,1,0.8c0.2-0.1,0.5-0.4,0.8-1l7.2-20.6
       c0.8-2.2,1.6-3.2,2.5-3.2h1c0.2,0,0.3-0.1,0.3-0.3l0.2-0.7c0.1-0.3,0-0.5-0.4-0.5c-0.5,0-1.3,0.1-3.4,0.1c-2.7,0-4-0.1-4.5-0.1
       c-0.2,0-0.3,0.2-0.4,0.3l-0.1,0.9c-0.1,0.3,0,0.4,0.4,0.4h1.2c1.3,0,1.6,1.3,0.6,4.4l-4.1,12.7c-0.3,0.9-0.5,1-0.8,0.5l-8.7-18.1
       c-0.2-0.5-0.5-1-1.2-1c-4.6,0-6.2-0.1-6.7-0.1c-0.3,0-0.4,0.2-0.5,0.4l-0.2,0.7c-0.1,0.3,0,0.5,0.3,0.5h1.5c1.6,0,2.5,1.1,1.7,3.4
       l-4.8,15.1c-1.2,3.5-2.1,4.8-3.9,4.8h-0.9c-0.2,0-0.3,0.2-0.4,0.3l-0.1,0.8c0,0.3,0,0.4,0.3,0.4c0.5,0,1.7-0.1,4.5-0.1
       c2.7,0,4.3,0.1,4.7,0.1s0.4-0.1,0.5-0.4l0.2-0.8c0-0.2-0.1-0.4-0.4-0.4h-1.5c-1.6,0-1.8-1.8-0.5-6.3l3.9-13.1
       c0.1-0.5,0.4-0.5,0.6-0.1L74.3,62.2z M87.1,58.7c-0.5,2-0.8,2.8-3.1,2.8h-1.5c-0.2,0-0.3,0.1-0.3,0.3L82,62.7c0,0.2,0.1,0.4,0.3,0.4
       c0.5,0,2.5-0.1,5.8-0.1c4,0,5.8,0.1,6.3,0.1c0.4,0,0.4-0.1,0.5-0.4l0.1-0.8c0.1-0.2,0-0.4-0.2-0.4h-1.4c-1.6,0-2.2-0.8-1.7-2.7
       l4.9-18c0.6-2.2,1.5-2.6,3.1-2.6h1c0.3,0,0.4-0.2,0.4-0.3l0.2-0.8c0.1-0.3-0.1-0.5-0.5-0.5c-0.5,0-2.2,0.1-5.6,0.1
       c-3.1,0-5.2-0.1-5.7-0.1c-0.3,0-0.5,0.1-0.5,0.2l-0.2,1c0,0.2,0.1,0.3,0.4,0.3H91c1,0,1.6,0.6,1.1,2.6L87.1,58.7z M107.6,55.8
       c-0.5,0.7-1,0.6-0.9-0.4l2.7-15.7c0.2-1.1,0.9-1.6,2.2-1.6h1.1c0.3,0,0.4-0.1,0.4-0.3l0.1-0.9c0.1-0.3,0-0.4-0.4-0.4
       c-0.5,0-2.1,0.1-4.9,0.1c-3.4,0-5-0.1-5.6-0.1c-0.3,0-0.3,0.1-0.4,0.4l-0.2,0.8c-0.1,0.3,0.1,0.4,0.4,0.4h1.3c1.3,0,1.6,0.9,1.5,2.1
       l-3.1,22c-0.2,0.9-0.1,1.5,0.5,1.5c0.5,0,1-0.4,1.3-0.7l16.7-21c1.5-1.9,3.5-3.9,4.9-3.9h0.9c0.2,0,0.3-0.2,0.4-0.4l0.1-0.8
       c0-0.2,0-0.4-0.4-0.4c-0.5,0-1.5,0.1-3.8,0.1c-2.1,0-3.4-0.1-4-0.1c-0.4,0-0.5,0.1-0.5,0.3l-0.2,0.9c0,0.2,0,0.4,0.4,0.4h0.8
       c1.1,0,0.9,1.4-0.5,3.2L107.6,55.8z M144.5,55.9c-0.2-0.2-0.4-0.1-0.5,0.1c-0.6,0.7-2.7,3.4-3.6,4.1c-1,0.9-2.1,1.5-3.4,1.5h-8.8
       l3.8-11.9h2c2.8,0,4.3,0.4,4.3,3.2c0,0.2,0,0.3,0.2,0.4h0.7c0.2,0,0.2,0,0.3-0.2c0.2-1.5,1.4-6.3,2-7.8c0.1-0.1,0-0.2-0.2-0.2
       l-0.7-0.2c-0.2,0-0.2,0.1-0.3,0.2c-1.4,3.1-2.9,3.3-4.6,3.3h-3.4l3.3-10.1h6.1c0.2,0,0.5,0.1,0.7,0.3l4,4.6c0.2,0.2,0.3,0.3,0.5,0.2
       l0.5-0.2c0.2-0.2,0.2-0.2,0.2-0.4l-1.2-5.2c-0.2-0.6-0.2-0.8-0.9-0.8c-0.4,0-1.4,0-2.9,0.1c-1.6,0-3.7,0-6.5,0h-2.8
       c-0.9,0-2.2,0-3.4-0.1c-1.1,0-2,0-2.3,0s-0.4,0.1-0.5,0.3l-0.2,0.9c-0.1,0.2,0,0.4,0.2,0.4h1.3c1.2,0,2.6,0.5,1.9,2.7l-6,18.6
       c-0.4,1.3-1.2,2.1-2.7,2.1h-1.3c-0.2,0-0.2,0.1-0.3,0.2l-0.2,1c0,0.2,0,0.3,0.2,0.3s0.9,0,1.7-0.1c0.9,0,2,0,3.2,0h5.1
       c2.7,0,5.5,0,7.7,0s3.8,0.1,4.1,0.1c0.5,0,0.7-0.1,0.9-0.7l2-5.7c0.1-0.3,0-0.4-0.1-0.4L144.5,55.9z M156.8,50.3
       c1.1,0,2.8-0.2,3.7,1.9c0.5,0.9,3.9,8.6,4.5,9.5c0.5,0.9,0.7,1.3,1.1,1.3c0.6,0,1.3-0.1,3.6-0.1c2.1,0,2.7,0.1,3.1,0.1
       c0.2,0,0.3-0.2,0.4-0.4l0.1-0.8c0.1-0.2,0-0.4-0.2-0.4h-1c-1.4,0-2.3-0.6-3.4-2.3c-0.7-1.1-3.3-6.6-3.6-7c-0.4-0.8-1-2-2.3-2.3v-0.2
       c5.1-0.5,9.2-3.7,9.2-7.5c0-5.4-5.9-5.7-9.2-5.7c-1.1,0-5.2,0.1-9.2,0.1c-0.4,0-0.5,0.1-0.5,0.3l-0.2,0.8c-0.1,0.2,0,0.3,0.3,0.3
       h1.3c1.3,0,1.6,0.7,1.2,2l-6.3,19.5c-0.3,1-1,1.8-2,1.8h-1c-0.3,0-0.4,0.1-0.4,0.3l-0.2,0.9c-0.1,0.2,0,0.4,0.2,0.4
       c0.5,0,2-0.1,4.7-0.1c3.4,0,5.1,0.1,5.6,0.1c0.2,0,0.4-0.1,0.5-0.3l0.1-0.9c0.1-0.2,0-0.3-0.2-0.3h-1.6c-1.1,0-1.5-0.7-0.9-2.8
       L156.8,50.3z M160.6,38c0.5-0.1,0.9-0.1,1.6-0.1c3.8,0,5,2.5,5,4.2c0,2.8-1.8,5-3.8,5.9c-2.7,1.1-4.7,0.9-6.3,0.9L160.6,38z
       M193.9,36.9c0-0.2-0.1-0.2-0.3-0.2l-0.5-0.1c-0.3,0-0.4,0-0.4,0.2c-0.2,0.8-0.4,1.3-0.6,1.3c-0.2,0-0.4-0.1-0.5-0.2
       c-0.6-0.5-2.5-1.8-4.6-1.8c-5.1,0-7.3,4.1-7.3,6.9c0,4,2,6.1,4.5,8.7c1.7,1.9,3.7,3.4,3.7,5.9c0,2.2-1.7,4.1-4.2,4.1
       c-2.4,0-5.5-2.7-4.4-8.3c0-0.2-0.1-0.3-0.2-0.4l-0.6-0.2c-0.2,0-0.3,0-0.4,0.2l-2.9,8.5c-0.1,0.3-0.1,0.3,0.2,0.4l0.5,0.2
       c0.2,0.1,0.3,0,0.4-0.2c0.3-0.5,0.7-1.2,0.9-1.5c0.2-0.2,0.6-0.3,1,0.1c1.3,1.4,3.1,2.9,5.6,2.9c4.1,0,7.7-2.7,7.7-7.7
       c0-4.3-2.6-6.5-4.4-8.3c-1.8-1.8-3.5-3.1-3.5-5.8c0-1.7,1.3-3.8,3.5-3.8c4,0,4.5,4.7,4.2,6.3c0,0.2,0.1,0.4,0.4,0.4h0.7
       c0.2,0,0.2-0.1,0.3-0.2L193.9,36.9z M197.1,58.7c-0.5,2-0.8,2.8-3.1,2.8h-1.5c-0.2,0-0.3,0.1-0.3,0.3l-0.2,0.9
       c0,0.2,0.1,0.4,0.3,0.4c0.5,0,2.5-0.1,5.8-0.1c4,0,5.8,0.1,6.3,0.1c0.4,0,0.4-0.1,0.5-0.4l0.1-0.8c0.1-0.2,0-0.4-0.2-0.4h-1.4
       c-1.6,0-2.2-0.8-1.7-2.7l4.9-18c0.6-2.2,1.5-2.6,3.1-2.6h1c0.3,0,0.4-0.2,0.4-0.3l0.2-0.8c0.1-0.3-0.1-0.5-0.5-0.5
       c-0.5,0-2.2,0.1-5.6,0.1c-3.1,0-5.2-0.1-5.7-0.1c-0.3,0-0.5,0.1-0.5,0.2l-0.2,1c0,0.2,0.1,0.3,0.4,0.3h1.8c1,0,1.6,0.6,1.1,2.6
       L197.1,58.7z M221.4,36.7c-4.1,0-5.9-0.3-6.7-0.5c-0.3-0.2-0.5-0.3-0.6-0.3c-0.2,0-0.3,0.2-0.4,0.4c-0.1,0.2-2.5,5.7-3,6.6
       c-0.1,0.2-0.1,0.3,0.1,0.4l0.6,0.4c0.2,0,0.3,0,0.5-0.2c0.9-1.1,3-3.4,4.3-4.4c0.9-0.7,2.6-0.9,6.2-0.9h1l-6,19.3
       c-0.9,2.9-1.6,4-3.8,4h-1c-0.3,0-0.4,0.1-0.5,0.3l-0.1,0.9c0,0.2,0.1,0.4,0.4,0.4c0.4,0,2.5-0.1,6.3-0.1c3.7,0,5.2,0.1,5.8,0.1
       c0.3,0,0.4-0.1,0.5-0.4l0.2-0.8c0-0.2,0-0.4-0.2-0.4h-1.6c-2,0-2.4-0.9-1.6-3.3l6.2-20h0.8c1.8,0,4.6,0.4,5.5,1
       c0.5,1,1.3,3.4,1.6,4.7c0.2,0.5,0.3,0.6,0.5,0.6l0.6-0.1c0.2,0,0.3-0.1,0.3-0.4c-0.1-1.6,0.3-7.3,0.4-7.9c0-0.2-0.2-0.3-0.3-0.3
       c-0.2,0-0.2,0.1-0.4,0.2c-0.7,0.4-2.1,0.7-5.6,0.7H221.4z M250,55c0.4-1.7,0.8-2.5,1.3-3.4s7.7-10.9,8.3-11.7
       c0.8-1.1,1.6-1.7,2.9-1.7h0.7c0.2,0,0.3-0.1,0.3-0.4l0.2-0.8c0-0.2-0.1-0.4-0.4-0.4c-0.5,0-1.7,0.1-4.2,0.1c-2.2,0-3.7-0.1-4.2-0.1
       c-0.4,0-0.5,0.1-0.5,0.3l-0.1,0.9c-0.1,0.2,0,0.4,0.2,0.4h0.9c1.3,0,1.8,0.6,1.3,2.1c-0.4,1.2-5.9,9.4-6.5,10.3
       c-0.3,0.5-0.6,0.5-0.8-0.1L246.3,40c-0.2-0.8-0.2-1.7,1-1.7h1c0.2,0,0.3-0.1,0.4-0.3l0.1-0.9c0-0.2-0.1-0.3-0.4-0.3
       c-0.5,0-1.8,0.1-5.2,0.1c-3.1,0-4.2-0.1-4.7-0.1c-0.2,0-0.3,0.1-0.4,0.3l-0.2,0.9c0,0.2,0.1,0.3,0.3,0.3h0.9c1.3,0,2.1,0.5,2.4,1.5
       l4.1,12c0.2,0.5,0.2,1.5,0.1,2l-1.3,5.8c-0.2,1.1-0.8,2-2.6,2h-0.9c-0.3,0-0.4,0.2-0.4,0.3l-0.2,0.9c0,0.3,0.1,0.4,0.3,0.4
       c0.5,0,1.6-0.1,5.2-0.1c3.1,0,4.4,0.1,5,0.1c0.3,0,0.4-0.2,0.4-0.4l0.2-0.9c0-0.2-0.1-0.3-0.3-0.3h-0.9c-1.3,0-1.8-0.2-1.4-2.2
       L250,55z"></path>
    </svg>
